# xmcd
#
# Track frame offsets: 
#        150
#        16328
#        33415
#        55432
#        74726
#        95075
#        118076
#        142815
#        157055
#        174536
#        178517
#        192149
#        205746
#        221529
#        238010
#        252109
#        269630
#        285214
#        313415
#        333200
#        347948
#
# Disc length: 4781 seconds
#
# Revision: 0
# Processed by: cddbd v1.5.2PL0 Copyright (c) Steve Scherf et al.
# Submitted via: ExactAudioCopy v0.95b3
#
DISCID=4512ab15
DTITLE=Phil Spector  - Rare Masters CD 2  FLAC
DYEAR=1900
DGENRE=
TTITLE0=The Ronettes - Walking in the Rain take 7, with vocal
TTITLE1=The Ronettes - Walking in the Rain vocal track
TTITLE2=Veronica - Why Don't They Let Us Fall in Love takes 1-4
TTITLE3=Veronica - Why Don't They Let Us Fall in Love takes 5-10
TTITLE4=Veronica - Why Don't They Let Us Fall in Love takes 11-14
TTITLE5=Veronica - Why Don't They Let Us Fall in Love takes 15 and 16
TTITLE6=Veronica - Why Don't They Let Us Fall in Love takes 17-21
TTITLE7=Veronica - Why Don't They Let Us Fall in Love takes 21-23
TTITLE8=Veronica - Why Don't They Let Us Fall in Love takes 24-28
TTITLE9=Veronica - Why Don't They Let Us Fall in Love take 29
TTITLE10=The Crystals - Heartbreaker take 1
TTITLE11=The Crystals - Heartbreaker take 1, with vocal
TTITLE12=The Crystals - Chico's Girl take 1
TTITLE13=The Crystals - Chico's Girl take 2, with vocal - stereo
TTITLE14=The Crystals - Chico's Girl take 2, with vocal - mono
TTITLE15=The Crystals - Uptown take 1
TTITLE16=The Crystals - Uptown take 2-4
TTITLE17=The Crystals - Uptown take 5-13
TTITLE18=The Crystals - Uptown take 14-19
TTITLE19=The Crystals - Uptown take 20-23
TTITLE20=The Crystals - Uptown take 24
EXTD=
EXTT0=
EXTT1=
EXTT2=
EXTT3=
EXTT4=
EXTT5=
EXTT6=
EXTT7=
EXTT8=
EXTT9=
EXTT10=
EXTT11=
EXTT12=
EXTT13=
EXTT14=
EXTT15=
EXTT16=
EXTT17=
EXTT18=
EXTT19=
EXTT20=
PLAYORDER=
